<svg id="visual" viewBox="0 0 900 600" width="900" height="600" xmlns="http://www.w3.org/2000/svg" xmlns:xlink="http://www.w3.org/1999/xlink" version="1.1"><path d="M0 43L75 61L150 37L225 67L300 67L375 79L450 73L525 55L600 13L675 73L750 37L825 79L900 25L900 0L825 0L750 0L675 0L600 0L525 0L450 0L375 0L300 0L225 0L150 0L75 0L0 0Z" fill="#8cff9e"></path><path d="M0 247L75 181L150 247L225 145L300 133L375 163L450 163L525 205L600 145L675 199L750 127L825 205L900 241L900 23L825 77L750 35L675 71L600 11L525 53L450 71L375 77L300 65L225 65L150 35L75 59L0 41Z" fill="#62dd73"></path><path d="M0 307L75 265L150 343L225 223L300 169L375 205L450 217L525 241L600 247L675 319L750 175L825 295L900 343L900 239L825 203L750 125L675 197L600 143L525 203L450 161L375 161L300 131L225 143L150 245L75 179L0 245Z" fill="#32bb48"></path><path d="M0 319L75 337L150 397L225 295L300 223L375 247L450 277L525 265L600 325L675 355L750 199L825 355L900 391L900 341L825 293L750 173L675 317L600 245L525 239L450 215L375 203L300 167L225 221L150 341L75 263L0 305Z" fill="#16ad36"></path><path d="M0 415L75 373L150 451L225 331L300 271L375 277L450 319L525 295L600 385L675 385L750 259L825 427L900 409L900 389L825 353L750 197L675 353L600 323L525 263L450 275L375 245L300 221L225 293L150 395L75 335L0 317Z" fill="#32bb48"></path><path d="M0 487L75 577L150 505L225 577L300 481L375 505L450 475L525 451L600 547L675 547L750 463L825 529L900 505L900 407L825 425L750 257L675 383L600 383L525 293L450 317L375 275L300 269L225 329L150 449L75 371L0 413Z" fill="#62dd73"></path><path d="M0 601L75 601L150 601L225 601L300 601L375 601L450 601L525 601L600 601L675 601L750 601L825 601L900 601L900 503L825 527L750 461L675 545L600 545L525 449L450 473L375 503L300 479L225 575L150 503L75 575L0 485Z" fill="#8cff9e"></path></svg>